<svg xmlns="http://www.w3.org/2000/svg" viewBox="0 0 300.58 300"><polygon points="63.08 158.98 251.62 222.2 251.62 95.77 63.08 158.98" style="fill:#6da7ba"/><polygon points="156 131.66 48.95 95.77 48.95 222.2 159.84 185.02 156 131.66" style="fill:#bc3a1d"/><polygon points="142.06 137.2 82.92 238.92 82.92 35.47 142.06 137.2" style="fill:#df671f"/><polygon points="158.85 137.2 217.99 238.92 217.99 35.47 158.85 137.2" style="fill:#24546e"/><polygon points="150.92 29.77 66.97 281.64 61.15 300 240.78 300 234.76 281.28 150.92 29.77" style="fill:#333"/><path d="M151,164.61,145.91,180H129.55l13.22,9.64-5.19,15.78L151,195.66l13.38,9.76-5.18-15.78L172.37,180H156Z" style="fill:#fff"/><path d="M116.16,190l-5,15.39H94.76L108,215l-5.19,15.78L116.16,221l13.38,9.76L124.36,215l13.21-9.64H121.21Z" style="fill:#fff"/><path d="M185.76,190.08l-5,15.39H164.35l13.21,9.64-5.18,15.78,13.38-9.76,13.38,9.76L194,215.11l13.22-9.64H190.81Z" style="fill:#fff"/><path d="M129.55,230.79l-5.05,15.39H108.14l13.22,9.64-5.19,15.78,13.38-9.76,13.38,9.76-5.18-15.78L151,246.18H134.6Z" style="fill:#fff"/><path d="M172.37,230.79l-5.05,15.39H151l13.21,9.64L159,271.6l13.38-9.76,13.38,9.76-5.19-15.78,13.22-9.64H177.42Z" style="fill:#fff"/></svg>