<svg width="64" height="64" xmlns="http://www.w3.org/2000/svg" xmlns:xlink="http://www.w3.org/1999/xlink"><defs><circle id="a" cx="32" cy="32" r="32"/></defs><g fill="none" fill-rule="evenodd"><mask id="b" fill="#fff"><use xlink:href="#a"/></mask><use fill="#FFF" xlink:href="#a"/><g mask="url(#b)" fill-rule="nonzero"><path fill="#6DA7BA" d="M13.457 33.916L53.68 47.403V20.43z"/><path fill="#BC3A1D" d="M33.28 28.087l-22.837-7.656v26.972l23.656-7.932z"/><path fill="#DF671F" d="M30.306 29.27L17.69 50.97V7.567z"/><path fill="#24546E" d="M33.888 29.27l12.617 21.7V7.567z"/><path fill="#333" d="M32.196 6.35l-17.91 53.733L13.047 64h38.32l-1.284-3.994z"/><path fill="#FFF" d="M32.213 35.117L31.127 38.4h-3.49l2.82 2.057-1.107 3.366 2.863-2.082 2.855 2.082-1.105-3.366 2.81-2.057H33.28z"/><path fill="#FFF" d="M24.78 40.533l-1.066 3.284h-3.499l2.825 2.05-1.107 3.366 2.848-2.086 2.854 2.082-1.105-3.362 2.818-2.057h-3.49zM39.629 40.55l-1.067 3.284h-3.5l2.817 2.056-1.105 3.367 2.855-2.083 2.854 2.083-1.096-3.367 2.82-2.056h-3.5zM27.637 49.235l-1.077 3.283h-3.49l2.82 2.057-1.107 3.366 2.854-2.082 2.855 2.082-1.105-3.366 2.826-2.057h-3.498z"/><path fill="#FFF" d="M36.772 49.235l-1.077 3.283h-3.482l2.818 2.057-1.111 3.366 2.854-2.082 2.855 2.082-1.107-3.366 2.82-2.057H37.85z"/></g></g></svg>